<?xml version="1.0" encoding="UTF-8"?>
<svg id="Layer_1" xmlns="http://www.w3.org/2000/svg" version="1.1" viewBox="0 0 1024.98 276.52">
  <!-- Generator: Adobe Illustrator 30.1.0, SVG Export Plug-In . SVG Version: 2.1.1 Build 136)  -->
  <defs>
    <style>
      .st0, .st1, .st2, .st3, .st4, .st5, .st6, .st7, .st8 {
        fill: #fff;
      }

      .st0, .st4, .st9, .st5, .st7, .st8 {
        isolation: isolate;
      }

      .st0, .st4, .st5, .st7, .st8 {
        font-family: Roboto-Medium, Roboto;
        font-size: 140px;
        font-weight: 500;
      }

      .st0, .st5 {
        letter-spacing: -.02em;
      }

      .st1 {
        opacity: .5;
      }

      .st2 {
        opacity: .95;
      }

      .st3, .st4, .st5, .st8 {
        opacity: .9;
      }

      .st4 {
        letter-spacing: 0em;
      }

      .st7 {
        letter-spacing: -.04em;
      }

      .st8 {
        letter-spacing: -.05em;
      }
    </style>
  </defs>
  <g class="st9">
    <text class="st0" transform="translate(343.04 182.95) scale(1.14 1)"><tspan x="0" y="0">Able</tspan></text>
    <text class="st7" transform="translate(651.46 182.95) scale(1.14 1)"><tspan x="0" y="0">l</tspan></text>
    <text class="st4" transform="translate(686.47 182.95) scale(1.14 1)"><tspan x="0" y="0">yt</tspan></text>
    <text class="st5" transform="translate(820.75 182.95) scale(1.14 1)"><tspan x="0" y="0">i</tspan></text>
    <text class="st8" transform="translate(858 182.95) scale(1.14 1)"><tspan x="0" y="0">cs</tspan></text>
  </g>
  <circle class="st2" cx="266.97" cy="71.92" r="20.27"/>
  <path class="st3" d="M262.43,160.88s21.44,46.94,26.61,57.87c3.65,7.72,9.37,19.59,12.81,26.74,3.24,6.73,4.99,13.22,3.88,17.29-1.38,5.07-3.33,8.31-9.98,8.98s-22.17.47-32.7-.91c-5.54-.73-14.47-2.01-26.49-11.72-9.88-7.98-15.63-17.62-20.29-29.26s-10.31-28.79-10.31-28.79l56.47-40.19h0Z"/>
  <path class="st1" d="M222.4,205.01c-9.97,7.86-6.93,22.8-6.93,22.8l-2.54-6.75-6.96-20,56.47-40.19,4.57,10s-27.73,20.83-44.61,34.14h0Z"/>
  <path id="shape" class="st6" d="M30.23,266.09c5.27,5.93,14.62,14.58,36.86,10.48,27.46-5.07,45.47-17.74,59.22-25.27,13.75-7.54,84.44-47.44,99.07-57.64s39.9-28.82,49.66-39.46,16.79-19.18,20.78-26.94,6.48-25.83,6.48-25.83c0,0-11.86,16.28-25.94,26.24-20.2,14.3-42.9,24.86-73.16,35.33-19.99,6.92-42.34,12.69-50.99,14.47s-34.38,6.34-48.55,10.64c-14.52,4.41-31.64,13.15-40.57,18.84-9.7,6.18-25.24,22.36-31.04,30.82-1.81,2.63-4.13,7.71-4.59,9.39-1.77,6.54-1.83,13.76,2.76,18.93h0Z"/>
  <path class="st1" d="M26.3,254.5s6.26-10.67,18.89-21.08,49.99-33.48,49.99-33.48l23.83-15.74s-16.29,1.22-21.17,2.55-31.59,17.74-41.46,25.38-24.14,25.52-26.57,29.38c0,0-1.65,3.6-2.1,4.84-1.22,3.43-1.42,8.14-1.42,8.14h0Z"/>
  <g id="A">
    <path class="st3" d="M27.73,246.36c8.5-21.58,103.3-208.85,106.78-215.69.07-.13,6.29-11.72,8.84-15.96C144.59,12.64,154.48-.13,170.15,0c13.75.11,18.62,7.45,23.94,14.11s52.54,113.84,52.54,113.84c-11.97,9.98-20.12,11.61-33.36,17.29-16.19,6.94-24.39,8.2-24.39,8.2,0,0-4.68-10.81-5.99-14.41-3.72-10.24-7.37-14.65-14.63-14.63-8.73.03-11.32,7.64-18.95,23.19-3.42,6.96-9.56,13.59-21.06,23.47-22.06,18.95-63.06,43.79-71.7,49.27-11.21,7.11-28.82,26.03-28.82,26.03h0Z"/>
    <path class="st1" d="M235.2,102.17l11.43,25.84c-11.97,9.98-20.12,11.61-33.36,17.29-16.19,6.94-24.39,8.2-24.39,8.2l-5.99-14.41s3.66,8.81,28.88-.89c27.71-10.65,23.42-36.04,23.42-36.04h.01Z"/>
  </g>
</svg>