<svg width="429" height="82" viewBox="0 0 429 82" fill="none" xmlns="http://www.w3.org/2000/svg">
<g clip-path="url(#clip0_1_73)">
<path d="M33.35 18.92C32.76 19.54 32.78 20.52 33.4 21.12L39.74 27.2C39.74 27.2 39.76 27.2 39.76 27.21C39.9 27.34 40.06 27.44 40.23 27.51C40.24 27.51 40.26 27.51 40.27 27.52C40.44 27.58 40.62 27.62 40.81 27.62C41 27.62 41.18 27.58 41.35 27.52C41.36 27.52 41.37 27.52 41.39 27.51C41.57 27.44 41.73 27.33 41.87 27.2C41.87 27.2 41.88 27.2 41.89 27.19L48.23 21.11C48.85 20.52 48.87 19.53 48.28 18.91C47.69 18.29 46.7 18.27 46.08 18.86L42.37 22.41V1.55C42.36 0.7 41.66 0 40.81 0C39.96 0 39.26 0.7 39.26 1.55V22.42L35.55 18.86C34.93 18.27 33.95 18.29 33.35 18.91V18.92Z" fill="white"/>
<path d="M24.52 26.4L19.38 26.51C18.52 26.53 17.84 27.24 17.86 28.1C17.88 28.95 18.57 29.62 19.41 29.62C19.42 29.62 19.43 29.62 19.44 29.62L28.22 29.43C28.41 29.43 28.58 29.39 28.75 29.32C28.76 29.32 28.77 29.32 28.79 29.31C29.17 29.15 29.47 28.85 29.63 28.47C29.63 28.46 29.63 28.45 29.64 28.43C29.7 28.27 29.74 28.09 29.75 27.91L29.94 19.13C29.96 18.27 29.28 17.56 28.42 17.54C27.59 17.54 26.85 18.2 26.83 19.06L26.72 24.2L13.48 10.96C12.87 10.35 11.89 10.35 11.28 10.96C10.67 11.57 10.67 12.55 11.28 13.16L24.52 26.4Z" fill="white"/>
<path d="M18.87 45.62C18.28 46.24 18.3 47.22 18.92 47.82C19.22 48.11 19.61 48.25 20 48.25C20.41 48.25 20.82 48.09 21.12 47.77L27.2 41.43C27.2 41.43 27.2 41.41 27.21 41.41C27.34 41.27 27.44 41.11 27.51 40.94C27.51 40.93 27.51 40.91 27.52 40.9C27.58 40.73 27.62 40.55 27.62 40.36C27.62 40.17 27.58 39.99 27.52 39.82C27.52 39.81 27.52 39.8 27.51 39.78C27.44 39.6 27.33 39.44 27.2 39.3C27.2 39.3 27.2 39.29 27.19 39.28L21.11 32.94C20.52 32.32 19.53 32.3 18.91 32.89C18.29 33.48 18.27 34.47 18.86 35.09L22.41 38.8H1.55C0.7 38.8 0 39.5 0 40.36C0 41.22 0.7 41.91 1.55 41.91H22.42L18.86 45.62H18.87Z" fill="white"/>
<path d="M26.51 61.78C26.53 62.63 27.22 63.3 28.06 63.3C28.07 63.3 28.08 63.3 28.09 63.3C28.95 63.28 29.63 62.57 29.61 61.71L29.42 52.93C29.42 52.74 29.38 52.57 29.31 52.4C29.31 52.39 29.31 52.38 29.3 52.36C29.14 51.98 28.84 51.68 28.46 51.52C28.45 51.52 28.44 51.52 28.42 51.51C28.26 51.45 28.08 51.41 27.89 51.4L19.11 51.21C18.28 51.19 17.54 51.87 17.52 52.73C17.5 53.59 18.18 54.3 19.04 54.32L24.18 54.43L10.94 67.67C10.33 68.28 10.33 69.26 10.94 69.87C11.24 70.17 11.64 70.33 12.04 70.33C12.44 70.33 12.84 70.18 13.14 69.87L26.38 56.63L26.49 61.77L26.51 61.78Z" fill="white"/>
<path d="M47.82 62.24C48.41 61.62 48.39 60.64 47.77 60.04L41.43 53.96C41.43 53.96 41.41 53.96 41.41 53.95C41.27 53.82 41.11 53.72 40.94 53.65C40.93 53.65 40.91 53.65 40.9 53.64C40.73 53.58 40.55 53.54 40.36 53.54C40.17 53.54 39.99 53.58 39.82 53.64C39.81 53.64 39.8 53.64 39.79 53.65C39.61 53.72 39.45 53.83 39.31 53.96C39.31 53.96 39.3 53.96 39.29 53.97L32.95 60.05C32.33 60.64 32.31 61.63 32.9 62.25C33.21 62.57 33.61 62.73 34.02 62.73C34.41 62.73 34.79 62.59 35.1 62.3L38.81 58.75V79.62C38.81 80.48 39.51 81.17 40.36 81.17C41.21 81.17 41.91 80.47 41.91 79.62V58.75L45.62 62.31C46.24 62.9 47.22 62.88 47.82 62.26V62.24Z" fill="white"/>
<path d="M56.64 54.76L61.78 54.65C62.64 54.63 63.32 53.92 63.3 53.06C63.28 52.2 62.57 51.51 61.71 51.54L52.93 51.73C52.74 51.73 52.57 51.77 52.4 51.84C52.39 51.84 52.38 51.84 52.36 51.85C51.98 52.01 51.68 52.31 51.52 52.69C51.52 52.7 51.52 52.71 51.51 52.73C51.45 52.89 51.41 53.07 51.4 53.25L51.21 62.03C51.19 62.89 51.87 63.6 52.73 63.62C52.74 63.62 52.75 63.62 52.76 63.62C53.6 63.62 54.3 62.95 54.31 62.1L54.42 56.96L67.66 70.2C67.96 70.5 68.36 70.66 68.76 70.66C69.16 70.66 69.56 70.51 69.86 70.2C70.47 69.59 70.47 68.61 69.86 68L56.62 54.76H56.64Z" fill="white"/>
<path d="M79.61 39.25H58.74L62.3 35.54C62.89 34.92 62.87 33.94 62.25 33.34C61.63 32.75 60.65 32.77 60.05 33.39L53.97 39.73C53.97 39.73 53.97 39.75 53.96 39.75C53.83 39.89 53.73 40.05 53.66 40.22C53.66 40.23 53.66 40.25 53.65 40.26C53.59 40.43 53.55 40.61 53.55 40.8C53.55 40.99 53.59 41.17 53.65 41.34C53.65 41.35 53.65 41.36 53.66 41.38C53.73 41.56 53.84 41.72 53.97 41.86C53.97 41.86 53.97 41.87 53.98 41.88L60.06 48.22C60.37 48.54 60.77 48.7 61.18 48.7C61.57 48.7 61.95 48.56 62.26 48.27C62.88 47.68 62.9 46.69 62.31 46.07L58.76 42.36H79.63C80.49 42.36 81.18 41.66 81.18 40.81C81.18 39.96 80.48 39.26 79.63 39.26L79.61 39.25Z" fill="white"/>
<path d="M54.65 19.38C54.63 18.52 53.91 17.84 53.06 17.86C52.2 17.88 51.52 18.59 51.54 19.45L51.73 28.23C51.73 28.42 51.77 28.59 51.84 28.76C51.84 28.77 51.84 28.78 51.85 28.8C52.01 29.18 52.31 29.48 52.69 29.64C52.7 29.64 52.71 29.64 52.73 29.65C52.89 29.71 53.07 29.75 53.26 29.76L62.04 29.95C62.04 29.95 62.06 29.95 62.07 29.95C62.91 29.95 63.61 29.28 63.62 28.43C63.64 27.57 62.96 26.86 62.1 26.84L56.96 26.73L70.2 13.49C70.81 12.88 70.81 11.9 70.2 11.29C69.59 10.68 68.61 10.68 68 11.29L54.76 24.53L54.65 19.39V19.38Z" fill="white"/>
<path d="M59.94 13.21C55.92 10.36 51.43 8.47001 46.59 7.60001L46.04 10.66C50.43 11.45 54.5 13.17 58.15 15.75L59.95 13.21H59.94Z" fill="white"/>
<path d="M35.47 10.6L34.95 7.53999C30.09 8.35999 25.56 10.21 21.49 13.04L23.26 15.59C26.96 13.02 31.06 11.34 35.47 10.6Z" fill="white"/>
<path d="M46.04 70.5L46.59 73.56C51.42 72.69 55.91 70.8 59.94 67.94L58.14 65.4C54.49 67.99 50.41 69.7 46.04 70.5Z" fill="white"/>
<path d="M21.48 68.13C25.53 70.95 30.07 72.79 34.95 73.62L35.47 70.56C31.04 69.81 26.93 68.13 23.25 65.58L21.48 68.13Z" fill="white"/>
<path d="M15.73 58.11C13.13 54.42 11.41 50.32 10.63 45.9L7.57001 46.44C8.43001 51.31 10.32 55.84 13.19 59.9L15.73 58.11Z" fill="white"/>
<path d="M15.72 23.05L13.18 21.26C10.33 25.3 8.44001 29.83 7.57001 34.73L10.63 35.27C11.42 30.83 13.13 26.72 15.71 23.05H15.72Z" fill="white"/>
<path d="M65.56 57.94L68.11 59.72C70.91 55.71 72.75 51.21 73.6 46.37L70.54 45.84C69.77 50.24 68.1 54.31 65.56 57.95V57.94Z" fill="white"/>
<path d="M65.55 23.22C68.1 26.88 69.78 30.95 70.54 35.32L73.6 34.79C72.76 29.97 70.91 25.48 68.1 21.44L65.55 23.22Z" fill="white"/>
<path d="M40.58 46.8C44.0152 46.8 46.8 44.0152 46.8 40.58C46.8 37.1448 44.0152 34.36 40.58 34.36C37.1448 34.36 34.36 37.1448 34.36 40.58C34.36 44.0152 37.1448 46.8 40.58 46.8Z" fill="white"/>
<path d="M100.36 50.86L96.77 61.64H92.28V59.84L106.96 19.71H112.05L126.73 59.84V61.64H122.24L118.65 50.86H100.38H100.36ZM117.13 46.96L109.64 25.1H109.34L101.85 46.96H117.12H117.13ZM153.07 41.87H138.1V57.74H153.07C156.36 57.74 159.06 55.04 159.06 51.75V47.86C159.06 44.57 156.36 41.87 153.07 41.87ZM156.36 39.18V39.48C156.36 39.48 163.55 40.68 163.55 47.87V51.76C163.55 57.45 159.36 61.64 153.07 61.64H133.6V19.71H150.97C157.26 19.71 161.45 23.9 161.45 29.59V31.99C161.45 37.98 156.36 39.18 156.36 39.18ZM150.97 23.6H138.09V37.98H150.97C154.26 37.98 156.96 35.28 156.96 31.99V29.59C156.96 26.3 154.26 23.6 150.97 23.6ZM172.53 19.71H177.02V57.75H199.48V61.64H172.53V19.71ZM206.08 61.64V19.71H233.33V22.41L232.13 23.61H210.57V38.29H227.64V42.18H210.57V57.75H233.33V61.64H206.08ZM241.12 19.71H245.61V57.75H268.07V61.64H241.12V19.71ZM287.84 48.76V61.64H283.35V48.76L269.27 21.51V19.71H273.76L285.44 43.97H285.74L297.42 19.71H301.91V21.51L287.83 48.76H287.84ZM320.78 23.6V61.64H316.29V23.6H303.11V19.71H333.96V22.41L332.76 23.61H320.78V23.6ZM345.04 61.64H340.55V19.71H345.04V61.64ZM383.68 57.75V61.64H366.31C360.02 61.64 355.83 57.45 355.83 51.76V29.6C355.83 23.91 360.02 19.72 366.31 19.72H383.68V22.42L382.48 23.62H366.31C363.02 23.62 360.32 26.32 360.32 29.61V51.77C360.32 55.06 363.02 57.76 366.31 57.76H383.68V57.75ZM389.07 31.39V29.59C389.07 23.9 393.26 19.71 399.55 19.71H416.02V22.41L414.82 23.61H399.55C396.26 23.61 393.56 26.31 393.56 29.6V31.4C393.56 34.69 395.36 36.43 398.35 37.09L409.43 39.49C413.62 40.39 416.92 43.68 416.92 49.07V51.77C416.92 57.46 412.73 61.65 406.44 61.65H388.47V57.76H406.44C409.73 57.76 412.43 55.06 412.43 51.77V49.07C412.43 45.78 410.63 44.04 407.64 43.38L396.56 40.98C392.37 40.08 389.07 36.79 389.07 31.4V31.39Z" fill="#649DAD"/>
<path d="M389.07 29.59V31.39V31.4C389.07 36.79 392.37 40.08 396.56 40.98L407.64 43.38C410.63 44.04 412.43 45.78 412.43 49.07V51.77C412.43 55.06 409.73 57.76 406.44 57.76H388.47V61.65H406.44C412.73 61.65 416.92 57.46 416.92 51.77V49.07C416.92 43.68 413.62 40.39 409.43 39.49L398.35 37.09C395.36 36.43 393.56 34.69 393.56 31.4V29.6C393.56 26.31 396.26 23.61 399.55 23.61H414.82L416.02 22.41V19.71H399.55C393.26 19.71 389.07 23.9 389.07 29.59Z" fill="#649DAD"/>
</g>
<defs>
<clipPath id="clip0_1_73">
<rect width="429" height="81.16" fill="white"/>
</clipPath>
</defs>
</svg>
