<?xml version="1.0" encoding="UTF-8"?>
<svg id="Layer_1" xmlns="http://www.w3.org/2000/svg" xmlns:xlink="http://www.w3.org/1999/xlink" version="1.1" viewBox="0 0 998.36 280.42">
  <!-- Generator: Adobe Illustrator 30.1.0, SVG Export Plug-In . SVG Version: 2.1.1 Build 136)  -->
  <defs>
    <style>
      .st0 {
        fill: url(#linear-gradient2);
      }

      .st1 {
        fill: url(#linear-gradient1);
      }

      .st2 {
        fill: url(#linear-gradient3);
      }

      .st3 {
        fill: #5f3b8f;
      }

      .st4 {
        letter-spacing: .01em;
      }

      .st4, .st5, .st6 {
        fill: #734494;
      }

      .st7 {
        fill: url(#linear-gradient);
      }

      .st8 {
        letter-spacing: -.02em;
      }

      .st8, .st9 {
        fill: #2d2d6e;
      }

      .st9 {
        letter-spacing: -.04em;
      }

      .st5 {
        letter-spacing: -.05em;
      }

      .st6 {
        letter-spacing: -.02em;
      }

      .st10 {
        font-family: Roboto-Medium, Roboto;
        font-size: 140px;
        font-weight: 500;
      }

      .st11 {
        fill: #3861ab;
      }

      .st12 {
        fill: #4b4697;
      }
    </style>
    <linearGradient id="linear-gradient" x1="226.14" y1="74.7" x2="266.68" y2="74.7" gradientUnits="userSpaceOnUse">
      <stop offset="0" stop-color="#77c3ad"/>
      <stop offset=".11" stop-color="#75c3b4"/>
      <stop offset=".28" stop-color="#74c4b8"/>
      <stop offset=".67" stop-color="#65c1c3"/>
      <stop offset=".89" stop-color="#54bed2"/>
      <stop offset="1" stop-color="#39b0ce"/>
    </linearGradient>
    <linearGradient id="linear-gradient1" x1="185.8" y1="219.28" x2="285.89" y2="219.28" gradientUnits="userSpaceOnUse">
      <stop offset="0" stop-color="#5b4696"/>
      <stop offset=".28" stop-color="#5e4696"/>
      <stop offset=".66" stop-color="#684997"/>
      <stop offset=".88" stop-color="#6e4897"/>
      <stop offset="1" stop-color="#684595"/>
    </linearGradient>
    <linearGradient id="linear-gradient2" x1="5.52" y1="192.31" x2="281.47" y2="192.31" gradientUnits="userSpaceOnUse">
      <stop offset="0" stop-color="#42509e"/>
      <stop offset=".08" stop-color="#51509d"/>
      <stop offset=".18" stop-color="#5d509d"/>
      <stop offset=".28" stop-color="#62519d"/>
      <stop offset=".56" stop-color="#8b60a4"/>
      <stop offset=".78" stop-color="#aa74af"/>
      <stop offset="1" stop-color="#af7bb4"/>
    </linearGradient>
    <linearGradient id="linear-gradient3" x1="8.35" y1="125.95" x2="227.25" y2="125.95" gradientUnits="userSpaceOnUse">
      <stop offset="0" stop-color="#74c4b4"/>
      <stop offset="0" stop-color="#73c3b5"/>
      <stop offset=".09" stop-color="#6cc3c7"/>
      <stop offset=".18" stop-color="#67c3d3"/>
      <stop offset=".28" stop-color="#66c3d7"/>
      <stop offset=".67" stop-color="#56a1d9"/>
      <stop offset=".89" stop-color="#467dc0"/>
      <stop offset="1" stop-color="#3970b7"/>
    </linearGradient>
  </defs>
  <text class="st10" transform="translate(322.2 185.73) scale(1.14 1)"><tspan class="st8" x="0" y="0">Able</tspan><tspan class="st9" x="270.55" y="0">l</tspan><tspan class="st4" x="301.26" y="0">yt</tspan><tspan class="st6" x="419.05" y="0">i</tspan><tspan class="st5" x="451.72" y="0">cs</tspan></text>
  <circle class="st7" cx="246.14" cy="74.7" r="20.27"/>
  <path class="st1" d="M241.6,163.66s21.44,46.94,26.61,57.87c3.65,7.72,9.37,19.59,12.81,26.74,3.24,6.73,4.99,13.22,3.88,17.29-1.38,5.07-3.33,8.31-9.98,8.98s-22.17.47-32.7-.91c-5.54-.73-14.47-2.01-26.49-11.72-9.88-7.98-15.63-17.62-20.29-29.26s-10.31-28.79-10.31-28.79l56.47-40.19Z"/>
  <path class="st3" d="M201.57,207.79c-9.97,7.86-6.93,22.8-6.93,22.8l-2.54-6.75-6.96-20,56.47-40.19,4.57,10s-27.73,20.83-44.61,34.14Z"/>
  <path id="shape" class="st0" d="M9.4,268.87c5.27,5.93,14.62,14.58,36.86,10.48,27.46-5.07,45.47-17.74,59.22-25.27,13.75-7.54,84.44-47.44,99.07-57.64s39.9-28.82,49.66-39.46,16.79-19.18,20.78-26.94,6.48-25.83,6.48-25.83c0,0-11.86,16.28-25.94,26.24-20.2,14.3-42.9,24.86-73.16,35.33-19.99,6.92-42.34,12.69-50.99,14.47s-34.38,6.34-48.55,10.64c-14.52,4.41-31.64,13.15-40.57,18.84-9.7,6.18-25.24,22.36-31.04,30.82-1.81,2.63-4.13,7.71-4.59,9.39-1.77,6.54-1.83,13.76,2.76,18.93Z"/>
  <path class="st12" d="M5.47,257.28s6.26-10.67,18.89-21.08,49.99-33.48,49.99-33.48l23.83-15.74s-16.29,1.22-21.17,2.55-31.59,17.74-41.46,25.38-24.14,25.52-26.57,29.38c0,0-1.65,3.6-2.1,4.84-1.22,3.43-1.42,8.14-1.42,8.14Z"/>
  <g id="A">
    <path class="st2" d="M6.9,249.14C15.4,227.56,110.2,40.29,113.68,33.45c.07-.13,6.29-11.72,8.84-15.96,1.24-2.07,11.13-14.84,26.8-14.71,13.75.11,18.62,7.45,23.94,14.11s52.54,113.84,52.54,113.84c-11.97,9.98-20.12,11.61-33.36,17.29-16.19,6.94-24.39,8.2-24.39,8.2,0,0-4.68-10.81-5.99-14.41-3.72-10.24-7.37-14.65-14.63-14.63-8.73.03-11.32,7.64-18.95,23.19-3.42,6.96-9.56,13.59-21.06,23.47-22.06,18.95-63.06,43.79-71.7,49.27-11.21,7.11-28.82,26.03-28.82,26.03Z"/>
    <path class="st11" d="M214.37,104.95l11.43,25.84c-11.97,9.98-20.12,11.61-33.36,17.29-16.19,6.94-24.39,8.2-24.39,8.2l-5.99-14.41s3.66,8.81,28.88-.89c27.71-10.65,23.42-36.04,23.42-36.04Z"/>
  </g>
</svg>