<svg width="429" height="82" viewBox="0 0 429 82" fill="none" xmlns="http://www.w3.org/2000/svg">
<g clip-path="url(#clip0_1_95)">
<path d="M33.35 18.92C32.76 19.54 32.78 20.52 33.4 21.12L39.74 27.2C39.74 27.2 39.76 27.2 39.76 27.21C39.9 27.34 40.06 27.44 40.23 27.51C40.24 27.51 40.26 27.51 40.27 27.52C40.44 27.58 40.62 27.62 40.81 27.62C41 27.62 41.18 27.58 41.35 27.52C41.36 27.52 41.37 27.52 41.39 27.51C41.57 27.44 41.73 27.33 41.87 27.2C41.87 27.2 41.88 27.2 41.89 27.19L48.23 21.11C48.85 20.52 48.87 19.53 48.28 18.91C47.69 18.29 46.7 18.27 46.08 18.86L42.37 22.41V1.55C42.36 0.7 41.66 0 40.81 0C39.96 0 39.26 0.7 39.26 1.55V22.42L35.55 18.86C34.93 18.27 33.95 18.29 33.35 18.91V18.92Z" fill="#649DAD"/>
<path d="M24.52 26.4L19.38 26.51C18.52 26.53 17.84 27.24 17.86 28.1C17.88 28.95 18.57 29.62 19.41 29.62C19.42 29.62 19.43 29.62 19.44 29.62L28.22 29.43C28.41 29.43 28.58 29.39 28.75 29.32C28.76 29.32 28.77 29.32 28.79 29.31C29.17 29.15 29.47 28.85 29.63 28.47C29.63 28.46 29.63 28.45 29.64 28.43C29.7 28.27 29.74 28.09 29.75 27.91L29.94 19.13C29.96 18.27 29.28 17.56 28.42 17.54C27.59 17.54 26.85 18.2 26.83 19.06L26.72 24.2L13.48 10.96C12.87 10.35 11.89 10.35 11.28 10.96C10.67 11.57 10.67 12.55 11.28 13.16L24.52 26.4Z" fill="#649DAD"/>
<path d="M18.87 45.62C18.28 46.24 18.3 47.22 18.92 47.82C19.22 48.11 19.61 48.25 20 48.25C20.41 48.25 20.82 48.09 21.12 47.77L27.2 41.43C27.2 41.43 27.2 41.41 27.21 41.41C27.34 41.27 27.44 41.11 27.51 40.94C27.51 40.93 27.51 40.91 27.52 40.9C27.58 40.73 27.62 40.55 27.62 40.36C27.62 40.17 27.58 39.99 27.52 39.82C27.52 39.81 27.52 39.8 27.51 39.78C27.44 39.6 27.33 39.44 27.2 39.3C27.2 39.3 27.2 39.29 27.19 39.28L21.11 32.94C20.52 32.32 19.53 32.3 18.91 32.89C18.29 33.48 18.27 34.47 18.86 35.09L22.41 38.8H1.55C0.7 38.8 0 39.5 0 40.36C0 41.22 0.7 41.91 1.55 41.91H22.42L18.86 45.62H18.87Z" fill="#649DAD"/>
<path d="M26.51 61.78C26.53 62.63 27.22 63.3 28.06 63.3C28.07 63.3 28.08 63.3 28.09 63.3C28.95 63.28 29.63 62.57 29.61 61.71L29.42 52.93C29.42 52.74 29.38 52.57 29.31 52.4C29.31 52.39 29.31 52.38 29.3 52.36C29.14 51.98 28.84 51.68 28.46 51.52C28.45 51.52 28.44 51.52 28.42 51.51C28.26 51.45 28.08 51.41 27.89 51.4L19.11 51.21C18.28 51.19 17.54 51.87 17.52 52.73C17.5 53.59 18.18 54.3 19.04 54.32L24.18 54.43L10.94 67.67C10.33 68.28 10.33 69.26 10.94 69.87C11.24 70.17 11.64 70.33 12.04 70.33C12.44 70.33 12.84 70.18 13.14 69.87L26.38 56.63L26.49 61.77L26.51 61.78Z" fill="#649DAD"/>
<path d="M47.82 62.24C48.41 61.62 48.39 60.64 47.77 60.04L41.43 53.96C41.43 53.96 41.41 53.96 41.41 53.95C41.27 53.82 41.11 53.72 40.94 53.65C40.93 53.65 40.91 53.65 40.9 53.64C40.73 53.58 40.55 53.54 40.36 53.54C40.17 53.54 39.99 53.58 39.82 53.64C39.81 53.64 39.8 53.64 39.79 53.65C39.61 53.72 39.45 53.83 39.31 53.96C39.31 53.96 39.3 53.96 39.29 53.97L32.95 60.05C32.33 60.64 32.31 61.63 32.9 62.25C33.21 62.57 33.61 62.73 34.02 62.73C34.41 62.73 34.79 62.59 35.1 62.3L38.81 58.75V79.62C38.81 80.48 39.51 81.17 40.36 81.17C41.21 81.17 41.91 80.47 41.91 79.62V58.75L45.62 62.31C46.24 62.9 47.22 62.88 47.82 62.26V62.24Z" fill="#649DAD"/>
<path d="M56.64 54.76L61.78 54.65C62.64 54.63 63.32 53.92 63.3 53.06C63.28 52.2 62.57 51.51 61.71 51.54L52.93 51.73C52.74 51.73 52.57 51.77 52.4 51.84C52.39 51.84 52.38 51.84 52.36 51.85C51.98 52.01 51.68 52.31 51.52 52.69C51.52 52.7 51.52 52.71 51.51 52.73C51.45 52.89 51.41 53.07 51.4 53.25L51.21 62.03C51.19 62.89 51.87 63.6 52.73 63.62C52.74 63.62 52.75 63.62 52.76 63.62C53.6 63.62 54.3 62.95 54.31 62.1L54.42 56.96L67.66 70.2C67.96 70.5 68.36 70.66 68.76 70.66C69.16 70.66 69.56 70.51 69.86 70.2C70.47 69.59 70.47 68.61 69.86 68L56.62 54.76H56.64Z" fill="#649DAD"/>
<path d="M79.61 39.25H58.74L62.3 35.54C62.89 34.92 62.87 33.94 62.25 33.34C61.63 32.75 60.65 32.77 60.05 33.39L53.97 39.73C53.97 39.73 53.97 39.75 53.96 39.75C53.83 39.89 53.73 40.05 53.66 40.22C53.66 40.23 53.66 40.25 53.65 40.26C53.59 40.43 53.55 40.61 53.55 40.8C53.55 40.99 53.59 41.17 53.65 41.34C53.65 41.35 53.65 41.36 53.66 41.38C53.73 41.56 53.84 41.72 53.97 41.86C53.97 41.86 53.97 41.87 53.98 41.88L60.06 48.22C60.37 48.54 60.77 48.7 61.18 48.7C61.57 48.7 61.95 48.56 62.26 48.27C62.88 47.68 62.9 46.69 62.31 46.07L58.76 42.36H79.63C80.49 42.36 81.18 41.66 81.18 40.81C81.18 39.96 80.48 39.26 79.63 39.26L79.61 39.25Z" fill="#649DAD"/>
<path d="M54.65 19.38C54.63 18.52 53.91 17.84 53.06 17.86C52.2 17.88 51.52 18.59 51.54 19.45L51.73 28.23C51.73 28.42 51.77 28.59 51.84 28.76C51.84 28.77 51.84 28.78 51.85 28.8C52.01 29.18 52.31 29.48 52.69 29.64C52.7 29.64 52.71 29.64 52.73 29.65C52.89 29.71 53.07 29.75 53.26 29.76L62.04 29.95C62.04 29.95 62.06 29.95 62.07 29.95C62.91 29.95 63.61 29.28 63.62 28.43C63.64 27.57 62.96 26.86 62.1 26.84L56.96 26.73L70.2 13.49C70.81 12.88 70.81 11.9 70.2 11.29C69.59 10.68 68.61 10.68 68 11.29L54.76 24.53L54.65 19.39V19.38Z" fill="#649DAD"/>
<path d="M59.94 13.21C55.92 10.36 51.43 8.47001 46.59 7.60001L46.04 10.66C50.43 11.45 54.5 13.17 58.15 15.75L59.95 13.21H59.94Z" fill="#649DAD"/>
<path d="M35.47 10.6L34.95 7.54001C30.09 8.36001 25.56 10.21 21.49 13.04L23.26 15.59C26.96 13.02 31.06 11.34 35.47 10.6Z" fill="#649DAD"/>
<path d="M46.04 70.5L46.59 73.56C51.42 72.69 55.91 70.8 59.94 67.94L58.14 65.4C54.49 67.99 50.41 69.7 46.04 70.5Z" fill="#649DAD"/>
<path d="M21.48 68.13C25.53 70.95 30.07 72.79 34.95 73.62L35.47 70.56C31.04 69.81 26.93 68.13 23.25 65.58L21.48 68.13Z" fill="#649DAD"/>
<path d="M15.73 58.11C13.13 54.42 11.41 50.32 10.63 45.9L7.57001 46.44C8.43001 51.31 10.32 55.84 13.19 59.9L15.73 58.11Z" fill="#649DAD"/>
<path d="M15.72 23.05L13.18 21.26C10.33 25.3 8.44001 29.83 7.57001 34.73L10.63 35.27C11.42 30.83 13.13 26.72 15.71 23.05H15.72Z" fill="#649DAD"/>
<path d="M65.56 57.94L68.11 59.72C70.91 55.71 72.75 51.21 73.6 46.37L70.54 45.84C69.77 50.24 68.1 54.31 65.56 57.95V57.94Z" fill="#649DAD"/>
<path d="M65.55 23.22C68.1 26.88 69.78 30.95 70.54 35.32L73.6 34.79C72.76 29.97 70.91 25.48 68.1 21.44L65.55 23.22Z" fill="#649DAD"/>
<path d="M40.58 46.8C44.0152 46.8 46.8 44.0152 46.8 40.58C46.8 37.1448 44.0152 34.36 40.58 34.36C37.1448 34.36 34.36 37.1448 34.36 40.58C34.36 44.0152 37.1448 46.8 40.58 46.8Z" fill="#649DAD"/>
<path d="M97.15 59.48C96.91 59.48 96.67 59.36 96.55 59.12C96.37 58.94 96.37 58.64 96.43 58.4L110.4 22.49C110.52 22.19 110.82 22.01 111.12 22.01H119.15C119.45 22.01 119.75 22.19 119.87 22.49L133.6 58.4C133.66 58.64 133.66 58.88 133.48 59.12C133.36 59.36 133.12 59.48 132.88 59.48H124.55C124.25 59.48 123.95 59.3 123.83 59L121.61 53.48L108.12 53.54L105.9 59C105.78 59.3 105.48 59.48 105.18 59.48H97.15ZM110.58 45.99H119.21L114.89 33.28L110.57 45.99H110.58ZM139.84 59.48C139.42 59.48 139.06 59.12 139.06 58.7V22.79C139.06 22.37 139.42 22.01 139.84 22.01H154.17C158.13 22.01 160.77 22.85 163.1 24.59C166.34 26.93 167.66 31.37 166.16 35.14C165.38 37.06 164.06 38.08 162.26 39.04C164.84 39.4 166.46 41.08 167.42 42.28C168.8 44.08 169.52 46.24 169.52 48.76C169.52 52.06 168.2 54.76 165.68 56.67C163.22 58.53 159.86 59.49 155.73 59.49H139.84V59.48ZM147.87 35.74H153.75C154.95 35.74 155.91 35.5 156.57 34.96C157.17 34.42 157.47 33.7 157.47 32.74C157.47 31.84 157.17 31.12 156.57 30.64C155.97 30.1 155.07 29.86 153.99 29.86H147.87V35.74ZM147.87 52.11H154.89C156.69 52.11 158.07 51.75 159.09 51.03C159.99 50.37 160.47 49.47 160.47 48.21C160.47 47.07 159.99 46.23 159.09 45.57C158.13 44.91 156.81 44.55 155.13 44.55H147.88V52.1L147.87 52.11ZM176.29 59.48C175.87 59.48 175.51 59.12 175.51 58.7V22.79C175.51 22.37 175.87 22.01 176.29 22.01H184.08C184.5 22.01 184.86 22.37 184.86 22.79V50.85H198.35C198.77 50.85 199.13 51.21 199.13 51.63V58.71C199.13 59.13 198.77 59.49 198.35 59.49H176.29V59.48ZM205.13 59.48V23.57C205.13 22.07 205.43 21.77 205.91 21.77H232.17C232.59 21.77 232.95 22.07 232.95 22.49V29.27C232.95 29.69 232.59 30.05 232.17 30.05H214.42V36.29H225.63C226.05 36.29 226.41 36.65 226.41 37.07V43.79C226.41 44.21 226.05 44.57 225.63 44.57H214.42V50.99H232.11C232.53 50.99 232.89 51.35 232.89 51.77V58.49C232.89 58.91 232.53 59.27 232.11 59.27H205.91C205.43 59.27 205.13 58.91 205.13 59.51V59.48ZM239.73 59.48C239.31 59.48 238.95 59.12 238.95 58.7V22.79C238.95 22.37 239.31 22.01 239.73 22.01H247.52C247.94 22.01 248.3 22.37 248.3 22.79V50.85H261.79C262.21 50.85 262.57 51.21 262.57 51.63V58.71C262.57 59.13 262.21 59.49 261.79 59.49H239.73V59.48ZM277.26 59.48C276.84 59.48 276.54 59.12 276.54 58.7V44.43L263.83 23.14C263.71 22.9 263.71 22.6 263.89 22.36C264.01 22.12 264.25 22 264.55 22H272.34C272.64 22 272.88 22.12 273 22.42L281.15 35.73L289.12 22.42C289.24 22.18 289.48 22 289.78 22H297.63C297.87 22 298.17 22.12 298.29 22.36C298.41 22.6 298.41 22.9 298.29 23.14L285.82 44.19V58.7C285.82 59.12 285.46 59.48 285.04 59.48H277.25H277.26ZM314.08 59.48C313.66 59.48 313.36 59.12 313.36 58.7V30.4H305.15C304.73 30.4 304.37 30.1 304.37 29.68V22.78C304.37 22.36 304.73 22 305.15 22H330.87C331.35 22 331.65 22.36 331.65 22.78V29.68C331.65 30.1 331.35 30.4 330.87 30.4H322.66V58.7C322.66 59.12 322.3 59.48 321.88 59.48H314.09H314.08ZM338.42 59.48C338 59.48 337.64 59.12 337.64 58.7V22.79C337.64 22.37 338 22.01 338.42 22.01H346.21C346.63 22.01 346.99 22.37 346.99 22.79V58.7C346.99 59.12 346.63 59.48 346.21 59.48H338.42ZM371.88 59.48C368.34 59.48 365.1 58.64 362.23 56.96C359.35 55.22 357.07 52.88 355.45 49.94C353.83 47 352.99 43.7 352.99 40.05C352.99 36.4 353.83 33.21 355.51 30.28C357.19 27.4 359.53 25.06 362.41 23.38C365.35 21.7 368.65 20.86 372.12 20.86C374.76 20.86 377.34 21.46 379.85 22.54C382.37 23.68 384.53 25.18 386.33 27.1C386.57 27.4 386.57 27.82 386.33 28.12L380.63 32.8C380.45 32.98 380.27 33.1 380.03 33.1C379.79 33.1 379.55 32.98 379.43 32.8C376.37 29.08 371.46 28.3 367.32 30.88C363.72 33.1 362.4 37.18 362.58 41.25C362.76 45.39 365.76 48.92 369.71 50.12C373.31 51.2 376.84 50.36 379.42 47.6C379.6 47.48 379.78 47.36 380.02 47.42C380.26 47.42 380.44 47.48 380.56 47.66L386.38 51.74C386.62 52.04 386.62 52.46 386.38 52.76C384.46 54.8 382.18 56.48 379.66 57.68C377.08 58.88 374.44 59.48 371.87 59.48H371.88ZM406.77 59.84C403.89 59.84 401.01 59.3 398.26 58.22C395.5 57.2 393.04 55.7 391.01 53.9C390.77 53.66 390.71 53.3 390.83 53L392.93 45.86C393.05 45.62 393.23 45.44 393.47 45.44C393.71 45.38 393.95 45.44 394.13 45.62C397.31 48.62 400.91 51.32 405.4 51.56C406.6 51.62 407.92 51.68 409.06 51.32C412.6 50.18 411.1 46.58 408.46 45.5C407.56 45.14 406.3 44.72 404.68 44.24C402.28 43.58 400.3 42.86 398.8 42.14C397.18 41.42 395.8 40.28 394.6 38.78C393.46 37.22 392.86 35.18 392.86 32.72C392.86 30.26 393.46 28.34 394.66 26.6C395.86 24.86 397.54 23.48 399.64 22.58C401.74 21.68 404.2 21.2 406.95 21.2C409.41 21.2 411.81 21.56 414.2 22.34C416.54 23.06 418.64 24.08 420.5 25.28C420.8 25.52 420.92 25.88 420.74 26.24L418.76 32.96C418.7 33.2 418.52 33.32 418.28 33.38C418.1 33.44 417.86 33.44 417.68 33.32C414.98 31.64 412.28 29.6 409.11 29.18C407.01 28.88 403.83 29 403.11 31.52C402.21 34.76 406.95 35.6 409.11 36.26C411.51 36.98 413.49 37.7 415.05 38.42C416.67 39.2 418.11 40.4 419.25 41.9C420.45 43.46 421.05 45.56 421.05 48.08C421.05 50.6 420.39 52.64 419.13 54.44C417.93 56.24 416.19 57.56 414.03 58.52C411.87 59.36 409.47 59.84 406.78 59.84H406.77Z" fill="#649DAD"/>
</g>
<defs>
<clipPath id="clip0_1_95">
<rect width="429" height="81.16" fill="white"/>
</clipPath>
</defs>
</svg>
