<?xml version="1.0" encoding="UTF-8"?>
<svg id="Layer_1" xmlns="http://www.w3.org/2000/svg" xmlns:xlink="http://www.w3.org/1999/xlink" version="1.1" viewBox="0 0 998.36 280.42">
  <!-- Generator: Adobe Illustrator 30.2.0, SVG Export Plug-In . SVG Version: 2.1.1 Build 105)  -->
  <defs>
    <style>
      .st0 {
        fill: url(#linear-gradient2);
      }

      .st1 {
        fill: url(#linear-gradient1);
      }

      .st2 {
        fill: url(#linear-gradient3);
      }

      .st3 {
        fill: #5f3b8f;
      }

      .st4 {
        fill: #734494;
      }

      .st5 {
        fill: url(#linear-gradient);
      }

      .st6 {
        isolation: isolate;
      }

      .st7 {
        fill: #3861ab;
      }

      .st8 {
        fill: #2d2d6e;
      }

      .st9 {
        fill: #4b4697;
      }
    </style>
    <linearGradient id="linear-gradient" x1="226.14" y1="205.19" x2="266.68" y2="205.19" gradientTransform="translate(0 279.89) scale(1 -1)" gradientUnits="userSpaceOnUse">
      <stop offset="0" stop-color="#77c3ad"/>
      <stop offset=".11" stop-color="#75c3b4"/>
      <stop offset=".28" stop-color="#74c4b8"/>
      <stop offset=".67" stop-color="#65c1c3"/>
      <stop offset=".89" stop-color="#54bed2"/>
      <stop offset="1" stop-color="#39b0ce"/>
    </linearGradient>
    <linearGradient id="linear-gradient1" x1="185.8" y1="60.6" x2="285.9" y2="60.6" gradientTransform="translate(0 279.89) scale(1 -1)" gradientUnits="userSpaceOnUse">
      <stop offset="0" stop-color="#5b4696"/>
      <stop offset=".28" stop-color="#5e4696"/>
      <stop offset=".66" stop-color="#684997"/>
      <stop offset=".88" stop-color="#6e4897"/>
      <stop offset="1" stop-color="#684595"/>
    </linearGradient>
    <linearGradient id="linear-gradient2" x1="5.51" y1="87.58" x2="281.47" y2="87.58" gradientTransform="translate(0 279.89) scale(1 -1)" gradientUnits="userSpaceOnUse">
      <stop offset="0" stop-color="#42509e"/>
      <stop offset=".08" stop-color="#51509d"/>
      <stop offset=".18" stop-color="#5d509d"/>
      <stop offset=".28" stop-color="#62519d"/>
      <stop offset=".56" stop-color="#8b60a4"/>
      <stop offset=".78" stop-color="#aa74af"/>
      <stop offset="1" stop-color="#af7bb4"/>
    </linearGradient>
    <linearGradient id="linear-gradient3" x1="8.35" y1="153.93" x2="227.25" y2="153.93" gradientTransform="translate(0 279.89) scale(1 -1)" gradientUnits="userSpaceOnUse">
      <stop offset="0" stop-color="#74c4b4"/>
      <stop offset="0" stop-color="#73c3b5"/>
      <stop offset=".09" stop-color="#6cc3c7"/>
      <stop offset=".18" stop-color="#67c3d3"/>
      <stop offset=".28" stop-color="#66c3d7"/>
      <stop offset=".67" stop-color="#56a1d9"/>
      <stop offset=".89" stop-color="#467dc0"/>
      <stop offset="1" stop-color="#3970b7"/>
    </linearGradient>
  </defs>
  <g class="st6">
    <g class="st6">
      <path class="st8" d="M397.25,162.56h-43.95l-9.2,23.17h-20.5l42.86-99.53h17.69l42.94,99.53h-20.57l-9.27-23.17ZM358.83,148.61h32.89l-16.44-41.29-16.44,41.29Z"/>
      <path class="st8" d="M508.92,149.5c0,11.48-2.92,20.62-8.77,27.41-5.84,6.79-13.88,10.19-24.12,10.19s-17.56-3.12-23.07-9.37l-.94,8h-17.14v-105h18.94v38.14c5.46-5.65,12.81-8.48,22.05-8.48,10.29,0,18.36,3.35,24.24,10.05,5.87,6.7,8.81,16.06,8.81,28.1v.96ZM489.99,148.06c0-8.02-1.61-14.04-4.83-18.05-3.22-4.01-7.9-6.02-14.03-6.02-8.21,0-13.98,3.14-17.3,9.43v30.49c3.38,6.43,9.2,9.64,17.46,9.64,5.92,0,10.49-1.94,13.72-5.81,3.22-3.87,4.88-9.73,4.99-17.57v-2.12Z"/>
      <path class="st8" d="M541.73,185.73h-18.94v-105h18.94v105Z"/>
      <path class="st8" d="M596.29,187.1c-12,0-21.73-3.32-29.18-9.95-7.46-6.63-11.18-15.46-11.18-26.49v-2.05c0-7.38,1.62-13.98,4.87-19.79,3.25-5.81,7.8-10.33,13.68-13.57,5.87-3.24,12.42-4.85,19.64-4.85,11.48,0,20.35,3.21,26.61,9.64,6.26,6.43,9.39,15.52,9.39,27.28v6.7h-55.1c.57,6.11,2.9,10.94,6.97,14.49,4.08,3.55,9.21,5.33,15.39,5.33,8.68,0,15.74-3.08,21.2-9.23l10.21,8.54c-3.38,4.42-7.88,7.85-13.52,10.29-5.64,2.44-11.96,3.66-18.98,3.66ZM594.03,123.73c-5.2,0-9.39,1.6-12.59,4.79-3.2,3.19-5.23,7.63-6.12,13.33h36.08v-1.23c-.42-5.56-2.1-9.76-5.07-12.61-2.96-2.85-7.07-4.27-12.31-4.27Z"/>
    </g>
    <g class="st6">
      <path class="st8" d="M660.47,185.73h-18.94v-105h18.94v105Z"/>
    </g>
    <g class="st6">
      <path class="st4" d="M704.83,161.94l17.14-50.18h20.18l-33.51,85.18c-5.14,12.44-13.87,18.66-26.18,18.66-2.75,0-5.79-.41-9.12-1.24v-12.91l3.58.21c4.78,0,8.38-.76,10.79-2.29,2.42-1.53,4.33-4.09,5.73-7.68l2.73-6.35-29.61-73.57h20.42l17.85,50.18Z"/>
      <path class="st4" d="M778.36,93.79v17.98h14.88v12.3h-14.88v41.29c0,2.83.64,4.87,1.91,6.12,1.27,1.25,3.55,1.88,6.82,1.88,2.18,0,4.39-.23,6.62-.68v12.85c-4.31,1.05-8.47,1.57-12.47,1.57-14.55,0-21.82-7.04-21.82-21.12v-41.9h-13.87v-12.3h13.87v-17.98h18.94Z"/>
    </g>
    <g class="st6">
      <path class="st4" d="M809.66,92.56c0-2.55.92-4.67,2.77-6.36,1.84-1.69,4.48-2.53,7.91-2.53s6.08.84,7.95,2.53c1.87,1.69,2.81,3.81,2.81,6.36s-.94,4.59-2.81,6.25c-1.87,1.66-4.52,2.5-7.95,2.5s-6.07-.83-7.91-2.5c-1.84-1.66-2.77-3.75-2.77-6.25ZM829.76,185.73h-18.94v-73.96h18.94v73.96Z"/>
    </g>
    <g class="st6">
      <path class="st4" d="M881.5,173.84c4.73,0,8.65-1.21,11.77-3.62,3.12-2.42,4.78-5.4,4.99-8.96h17.85c-.21,4.6-1.84,8.9-4.91,12.89-3.07,3.99-7.22,7.14-12.47,9.47-5.25,2.32-10.91,3.49-16.99,3.49-11.79,0-21.15-3.35-28.05-10.05-6.91-6.7-10.37-15.95-10.37-27.75v-1.71c0-11.26,3.43-20.27,10.29-27.04,6.86-6.77,16.21-10.15,28.05-10.15,10.03,0,18.2,2.56,24.51,7.69s9.62,11.86,9.94,20.2h-17.85c-.21-4.24-1.86-7.72-4.95-10.46-3.09-2.73-7.03-4.1-11.81-4.1-6.13,0-10.86,1.95-14.18,5.84-3.33,3.9-5.01,9.81-5.07,17.74v2.67c0,8.02,1.65,14,4.95,17.94,3.3,3.94,8.07,5.91,14.3,5.91Z"/>
      <path class="st4" d="M969.69,165.63c0-2.96-1.39-5.22-4.17-6.77-2.78-1.55-7.39-2.92-13.83-4.1-6.44-1.18-11.82-2.69-16.13-4.51-9.46-4.01-14.18-9.82-14.18-17.43,0-6.38,3.06-11.71,9.2-16,6.13-4.28,13.92-6.43,23.38-6.43,10.08,0,18.22,2.19,24.43,6.56,6.21,4.38,9.31,10.05,9.31,17.02h-18.94c0-3.19-1.35-5.84-4.05-7.96-2.7-2.12-6.29-3.18-10.75-3.18-4.16,0-7.55.84-10.17,2.53-2.62,1.69-3.94,3.94-3.94,6.77,0,2.55,1.22,4.54,3.66,5.95,2.44,1.41,7.38,2.84,14.81,4.27,7.43,1.44,13.26,3.14,17.5,5.13,4.23,1.98,7.38,4.36,9.43,7.14,2.05,2.78,3.08,6.15,3.08,10.12,0,6.65-3.14,12.04-9.43,16.17-6.29,4.12-14.52,6.19-24.7,6.19-6.91,0-13.07-1.09-18.47-3.28-5.4-2.19-9.61-5.2-12.62-9.02-3.01-3.83-4.52-7.95-4.52-12.37h18.39c.26,3.92,1.95,6.94,5.07,9.06s7.25,3.18,12.39,3.18,8.78-.83,11.38-2.5c2.6-1.66,3.9-3.84,3.9-6.53Z"/>
    </g>
  </g>
  <circle class="st5" cx="246.14" cy="74.7" r="20.27"/>
  <path class="st1" d="M241.6,163.66s21.44,46.94,26.61,57.87c3.65,7.72,9.37,19.59,12.81,26.74,3.24,6.73,4.99,13.22,3.88,17.29-1.38,5.07-3.33,8.31-9.98,8.98s-22.17.47-32.7-.91c-5.54-.73-14.47-2.01-26.49-11.72-9.88-7.98-15.63-17.62-20.29-29.26s-10.31-28.79-10.31-28.79l56.47-40.19h0Z"/>
  <path class="st3" d="M201.57,207.79c-9.97,7.86-6.93,22.8-6.93,22.8l-2.54-6.75-6.96-20,56.47-40.19,4.57,10s-27.73,20.83-44.61,34.14h0Z"/>
  <path id="shape" class="st0" d="M9.4,268.87c5.27,5.93,14.62,14.58,36.86,10.48,27.46-5.07,45.47-17.74,59.22-25.27,13.75-7.54,84.44-47.44,99.07-57.64s39.9-28.82,49.66-39.46,16.79-19.18,20.78-26.94,6.48-25.83,6.48-25.83c0,0-11.86,16.28-25.94,26.24-20.2,14.3-42.9,24.86-73.16,35.33-19.99,6.92-42.34,12.69-50.99,14.47s-34.38,6.34-48.55,10.64c-14.52,4.41-31.64,13.15-40.57,18.84-9.7,6.18-25.24,22.36-31.04,30.82-1.81,2.63-4.13,7.71-4.59,9.39-1.77,6.54-1.83,13.76,2.76,18.93h0Z"/>
  <path class="st9" d="M5.47,257.28s6.26-10.67,18.89-21.08,49.99-33.48,49.99-33.48l23.83-15.74s-16.29,1.22-21.17,2.55-31.59,17.74-41.46,25.38-24.14,25.52-26.57,29.38c0,0-1.65,3.6-2.1,4.84-1.22,3.43-1.42,8.14-1.42,8.14h0Z"/>
  <g id="A">
    <path class="st2" d="M6.9,249.14C15.4,227.56,110.2,40.29,113.68,33.45c.07-.13,6.29-11.72,8.84-15.96,1.24-2.07,11.13-14.84,26.8-14.71,13.75.11,18.62,7.45,23.94,14.11s52.54,113.84,52.54,113.84c-11.97,9.98-20.12,11.61-33.36,17.29-16.19,6.94-24.39,8.2-24.39,8.2,0,0-4.68-10.81-5.99-14.41-3.72-10.24-7.37-14.65-14.63-14.63-8.73.03-11.32,7.64-18.95,23.19-3.42,6.96-9.56,13.59-21.06,23.47-22.06,18.95-63.06,43.79-71.7,49.27-11.21,7.11-28.82,26.03-28.82,26.03h0Z"/>
    <path class="st7" d="M214.37,104.95l11.43,25.84c-11.97,9.98-20.12,11.61-33.36,17.29-16.19,6.94-24.39,8.2-24.39,8.2l-5.99-14.41s3.66,8.81,28.88-.89c27.71-10.65,23.42-36.04,23.42-36.04h.01Z"/>
  </g>
</svg>